<svg width="100" height="100" viewBox="0 0 100 100" fill="none" xmlns="http://www.w3.org/2000/svg">
<g clip-path="url(#clip0_1222_1458)">
<rect width="100" height="100" fill="#FAFAFA"/>
<path d="M94.6848 10.0911L51.6854 0.177613C47.408 -0.80891 43.3147 2.43836 43.3147 6.83933V16.9696L30.7158 27.7718C28.7043 23.4575 24.3237 20.4616 19.2594 20.4616C12.4864 20.4616 6.94182 25.8167 6.63714 32.5155C-0.0366918 36.1124 -1.91423 44.6321 2.14124 50.661C0.756472 52.7175 0.0144796 55.1393 0.0144796 57.688C0.0144796 61.5257 1.73518 64.9708 4.44593 67.2889V93.1643C4.44593 96.9337 7.51214 99.9999 11.2815 99.9999H93.1498C96.9192 99.9999 99.9854 96.9337 99.9854 93.1643V16.7528C99.9852 13.5499 97.8057 10.8118 94.6848 10.0911ZM16.3293 94.1411H11.2813C10.7422 94.1411 10.3047 93.7036 10.3047 93.1645V70.1053C12.218 70.4692 14.3088 70.393 16.3291 69.7755L16.3293 94.1411ZM17.2635 62.6507C12.9192 66.6915 5.87346 63.5626 5.87346 57.688C5.87346 55.8151 6.62151 54.0729 7.97678 52.78C8.55686 52.2272 8.88499 51.4616 8.88499 50.661C8.88499 49.1417 7.92542 48.5862 7.32659 47.8272C4.45823 44.2106 5.99378 38.6716 10.549 37.1891C11.8928 36.7497 12.7324 35.4137 12.543 34.0136C11.992 29.9212 15.1826 26.3206 19.2594 26.3206C23.3211 26.3206 26.5272 29.903 25.9739 34.0136C25.7864 35.4139 26.6262 36.7497 27.9698 37.1891C32.8604 38.7667 34.2344 45.0178 30.5418 48.5401C29.3336 49.6915 29.3291 51.6247 30.5418 52.7802C31.8973 54.0731 32.6432 55.8151 32.6432 57.6882C32.6432 63.3495 25.8996 66.8108 21.2028 62.6089C20.0994 61.627 18.418 61.5923 17.2635 62.6507ZM43.3147 94.1411H22.1883V69.7751C29.725 72.2874 38.5024 66.5065 38.5024 57.688C38.5024 55.1393 37.7602 52.7177 36.3756 50.661C40.1098 45.1096 38.8506 37.3628 33.2157 33.3475L43.3147 24.688V94.1411ZM81.2149 94.1411H62.0832V71.3005C62.0832 70.7614 62.5227 70.3239 63.0598 70.3239H80.2385C80.7776 70.3239 81.2151 70.7614 81.2151 71.3005L81.2149 94.1411ZM94.1262 93.1645C94.1262 93.7036 93.6867 94.1411 93.1496 94.1411H87.0739V71.3005C87.0739 67.5311 84.0076 64.4649 80.2383 64.4649H63.0596C59.2903 64.4649 56.2241 67.5311 56.2241 71.3005V94.1409H49.1737C49.1737 92.6489 49.1737 8.40339 49.1737 6.83933C49.1737 6.20671 49.7639 5.74578 50.369 5.88816L93.3684 15.8016C93.8137 15.9032 94.1262 16.2958 94.1262 16.7528V93.1645Z" fill="#F85A9C"/>
<path d="M59.1546 23.916C57.5366 23.916 56.2251 25.2275 56.2251 26.8455V27.2848C56.2251 28.9027 57.5366 30.2143 59.1546 30.2143C60.7726 30.2143 62.0841 28.9027 62.0841 27.2848V26.8455C62.0841 25.2275 60.7726 23.916 59.1546 23.916Z" fill="#F85A9C"/>
<path d="M71.6499 23.916C70.032 23.916 68.7205 25.2275 68.7205 26.8455V27.2848C68.7205 28.9027 70.032 30.2143 71.6499 30.2143C73.2679 30.2143 74.5794 28.9027 74.5794 27.2848V26.8455C74.5794 25.2275 73.2677 23.916 71.6499 23.916Z" fill="#F85A9C"/>
<path d="M84.1456 23.916C82.5276 23.916 81.2161 25.2275 81.2161 26.8455V27.2848C81.2161 28.9027 82.5276 30.2143 84.1456 30.2143C85.7635 30.2143 87.0751 28.9027 87.0751 27.2848V26.8455C87.0751 25.2275 85.7633 23.916 84.1456 23.916Z" fill="#F85A9C"/>
<path d="M59.1546 37.6804C57.5366 37.6804 56.2251 38.9919 56.2251 40.6099V41.0492C56.2251 42.6671 57.5366 43.9787 59.1546 43.9787C60.7726 43.9787 62.0841 42.6671 62.0841 41.0492V40.6099C62.0841 38.9919 60.7726 37.6804 59.1546 37.6804Z" fill="#F85A9C"/>
<path d="M71.6499 37.6804C70.032 37.6804 68.7205 38.9919 68.7205 40.6099V41.0492C68.7205 42.6671 70.032 43.9787 71.6499 43.9787C73.2679 43.9787 74.5794 42.6671 74.5794 41.0492V40.6099C74.5794 38.9919 73.2677 37.6804 71.6499 37.6804Z" fill="#F85A9C"/>
<path d="M84.1456 37.6804C82.5276 37.6804 81.2161 38.9919 81.2161 40.6099V41.0492C81.2161 42.6671 82.5276 43.9787 84.1456 43.9787C85.7635 43.9787 87.0751 42.6671 87.0751 41.0492V40.6099C87.0751 38.9919 85.7633 37.6804 84.1456 37.6804Z" fill="#F85A9C"/>
<path d="M59.1546 51.884C57.5366 51.884 56.2251 53.1956 56.2251 54.8135V55.2528C56.2251 56.8708 57.5366 58.1823 59.1546 58.1823C60.7726 58.1823 62.0841 56.8708 62.0841 55.2528V54.8135C62.0841 53.1958 60.7726 51.884 59.1546 51.884Z" fill="#F85A9C"/>
<path d="M71.6499 51.884C70.032 51.884 68.7205 53.1956 68.7205 54.8135V55.2528C68.7205 56.8708 70.032 58.1823 71.6499 58.1823C73.2679 58.1823 74.5794 56.8708 74.5794 55.2528V54.8135C74.5794 53.1958 73.2677 51.884 71.6499 51.884Z" fill="#F85A9C"/>
<path d="M84.1456 51.884C82.5276 51.884 81.2161 53.1956 81.2161 54.8135V55.2528C81.2161 56.8708 82.5276 58.1823 84.1456 58.1823C85.7635 58.1823 87.0751 56.8708 87.0751 55.2528V54.8135C87.0751 53.1958 85.7633 51.884 84.1456 51.884Z" fill="#F85A9C"/>
</g>
<defs>
<clipPath id="clip0_1222_1458">
<rect width="100" height="100" fill="white"/>
</clipPath>
</defs>
</svg>
