<svg width="100" height="100" viewBox="0 0 100 100" fill="none" xmlns="http://www.w3.org/2000/svg">
<g clip-path="url(#clip0_1223_1470)">
<rect width="100" height="100" fill="#FAFAFA"/>
<path d="M92.3966 47.1859H52.9296V37.7244C54.1732 37.921 55.6529 38.0699 57.2865 38.0699C61.3136 38.0699 66.2691 37.1654 70.8863 33.8437C80.8072 26.7064 80.6427 14.5421 80.631 14.0279C80.6031 12.8185 79.8349 11.7507 78.6972 11.34C78.2134 11.1654 66.7326 7.14234 56.8115 14.2796C54.9876 15.5917 53.5058 17.0738 52.3001 18.622C51.3566 14.341 49.0093 8.41734 43.1837 4.22632C33.2625 -2.91118 21.7816 1.11187 21.2976 1.28648C20.1599 1.69741 19.3916 2.76519 19.3638 3.97437C19.3519 4.48862 19.1874 16.6531 29.1085 23.7904C33.7263 27.1125 38.681 28.0166 42.7084 28.0166C44.3441 28.0166 45.8255 27.8671 47.0703 27.6701V47.1859H7.60327C5.9853 47.1859 4.67358 48.4976 4.67358 50.1156V97.0703C4.67358 98.6882 5.9853 100 7.60327 100H92.3966C94.0146 100 95.3263 98.6882 95.3263 97.0703V50.1156C95.3263 48.4976 94.0146 47.1859 92.3966 47.1859ZM60.233 19.0359C65.4499 15.2826 71.4947 15.7337 74.6134 16.3291C74.1998 19.4646 72.7222 25.3048 67.4642 29.0875C62.2447 32.8423 56.198 32.3894 53.0835 31.7949C53.4972 28.6595 54.9746 22.8189 60.233 19.0359ZM32.5302 19.0339C27.3132 15.2808 25.8195 9.40659 25.3921 6.26011C28.497 5.65562 34.5044 5.20034 39.7615 8.98257C44.9736 12.7322 46.4695 18.5984 46.8982 21.7433C43.7755 22.3375 37.7404 22.7822 32.5302 19.0339ZM75.8287 94.1406H24.171C22.948 87.206 17.4675 81.7255 10.533 80.5023V66.6835C17.4675 65.4605 22.948 59.9798 24.171 53.0453H75.8287C77.0517 59.9798 82.5324 65.4603 89.4669 66.6835V80.5025C82.5324 81.7255 77.0517 87.206 75.8287 94.1406ZM89.4669 60.6843C85.7703 59.6582 82.8541 56.7421 81.8279 53.0453H89.4669V60.6843ZM18.1718 53.0453C17.1457 56.7419 14.2296 59.6582 10.533 60.6843V53.0453H18.1718ZM10.533 86.5017C14.2296 87.5277 17.1457 90.4439 18.1718 94.1406H10.533V86.5017ZM81.8279 94.1406C82.8541 90.4439 85.7703 87.5277 89.4669 86.5017V94.1406H81.8279Z" fill="#F85A9C"/>
<path d="M52.7002 70.6455C52.0754 70.4083 51.5131 70.2134 51.0168 70.0416C49.5182 69.5224 48.8881 69.2894 48.3318 68.7281C47.9477 68.3404 47.7754 67.8781 47.8596 67.4599C47.9658 66.9308 48.4363 66.6337 48.8125 66.4777C49.6799 66.1177 51.4973 66.665 52.7525 67.4021C54.1473 68.221 55.943 67.7544 56.7623 66.3589C57.5815 64.9636 57.1145 63.1685 55.7192 62.3492C55.224 62.0585 54.2108 61.5158 52.9244 61.0939V60.7205C52.9244 59.1025 51.6127 57.7908 49.9947 57.7908C48.3768 57.7908 47.0651 59.1025 47.0651 60.7205V60.8831C46.8985 60.938 46.732 60.997 46.5666 61.0658C44.2102 62.0435 42.5875 63.9535 42.1149 66.3056C41.6469 68.6345 42.4151 71.082 44.1697 72.8527C45.7059 74.4031 47.3541 74.974 49.0988 75.5783C49.5793 75.7449 50.0762 75.9169 50.6209 76.1236C52.1164 76.6912 52.7615 77.741 52.3904 79.0033C52.099 79.9945 51.0785 80.6101 49.7276 80.6101C48.56 80.6101 47.2475 80.1957 46.2162 79.5017C44.874 78.5982 43.0535 78.9539 42.15 80.2962C41.2465 81.6386 41.6022 83.4591 42.9443 84.3626C44.1818 85.1957 45.6063 85.8072 47.0651 86.1509V86.4656C47.0651 88.0835 48.3768 89.3953 49.9947 89.3953C51.6127 89.3953 52.9244 88.0835 52.9244 86.4656V85.9195C55.3811 85.0333 57.2828 83.1353 58.0117 80.6562C59.2568 76.4214 57.0725 72.305 52.7002 70.6455Z" fill="#F85A9C"/>
<path d="M31.5825 70.6633H23.6362C22.0183 70.6633 20.7065 71.975 20.7065 73.593C20.7065 75.211 22.0183 76.5227 23.6362 76.5227H31.5825C33.2005 76.5227 34.5122 75.211 34.5122 73.593C34.5122 71.975 33.2005 70.6633 31.5825 70.6633Z" fill="#F85A9C"/>
<path d="M76.3633 70.6633H68.4172C66.7993 70.6633 65.4875 71.975 65.4875 73.593C65.4875 75.211 66.7993 76.5227 68.4172 76.5227H76.3633C77.9813 76.5227 79.293 75.211 79.293 73.593C79.293 71.975 77.9813 70.6633 76.3633 70.6633Z" fill="#F85A9C"/>
</g>
<defs>
<clipPath id="clip0_1223_1470">
<rect width="100" height="100" fill="white"/>
</clipPath>
</defs>
</svg>
