<svg width="100" height="100" viewBox="0 0 100 100" fill="none" xmlns="http://www.w3.org/2000/svg">
<rect width="100" height="100" fill="#FAFAFA"/>
<path d="M84.3481 77.8044C91.0108 63.5545 88.4683 46.0315 76.7181 34.2814C71.6949 29.2582 65.6159 25.9203 59.1892 24.262V19.9868H78.3292C79.3757 19.9868 80.343 19.4285 80.8662 18.5223C81.3895 17.616 81.3899 16.4994 80.8668 15.5929L77.6361 9.99338L80.8668 4.39384C81.3899 3.48738 81.3895 2.37075 80.8662 1.46448C80.343 0.558215 79.3759 0 78.3294 0H56.2596C54.6416 0 53.3299 1.31175 53.3299 2.92975V23.2224C46.501 22.5487 39.5255 23.6917 33.1955 26.6512C21.6733 20.9983 16.1426 22.8628 13.5239 25.4818C10.8981 28.1076 9.04358 33.6413 14.6931 45.1535C8.03086 59.4032 10.5733 76.9261 22.3234 88.6761C29.8218 96.1745 39.6712 99.9236 49.5208 99.9236C55.1055 99.9236 60.6898 98.717 65.846 96.3062C71.3672 99.0158 75.5134 100 78.623 100C81.9969 99.9998 84.1512 98.842 85.5177 97.4755C88.1335 94.8598 90.0021 89.3306 84.3481 77.8044ZM59.1894 5.8595H73.2567L71.7164 8.52928C71.1937 9.43536 71.1937 10.5514 71.7164 11.4575L73.2567 14.1273H59.1894V5.8595ZM53.3299 29.1127V35.4787C53.3299 37.0967 54.6416 38.4084 56.2596 38.4084C57.8776 38.4084 59.1894 37.0967 59.1894 35.4787V30.3487C64.0903 31.8618 68.7027 34.5523 72.575 38.4245C85.287 51.1366 85.287 71.8207 72.575 84.5329C70.5193 86.5886 68.2542 88.3095 65.8491 89.7004C58.0161 85.3819 49.2023 78.4933 40.8542 70.1453C32.5062 61.7972 25.6174 52.9834 21.2989 45.1504C22.6898 42.7453 24.4109 40.4802 26.4666 38.4245C33.791 31.1001 43.7621 27.9969 53.3299 29.1127ZM17.6672 29.625C18.7237 28.5686 21.7333 28.3022 26.9776 30.313C25.3482 31.4929 23.7904 32.8142 22.3234 34.281C20.8559 35.7484 19.5342 37.307 18.3539 38.937C16.3422 33.6966 16.6051 30.6872 17.6672 29.625ZM26.4666 84.5329C17.6168 75.6829 14.9302 62.9699 18.4026 51.7724C22.9536 59.0554 29.294 66.8716 36.7112 74.2885C44.1281 81.7055 51.9445 88.0458 59.2273 92.5969C48.0294 96.0692 35.3164 93.3827 26.4666 84.5329ZM81.3744 93.3323C80.3125 94.3944 77.3029 94.6573 72.0623 92.6455C73.6922 91.4652 75.2509 90.1435 76.7183 88.6761C78.1851 87.2093 79.5062 85.6514 80.6861 84.0223C82.6969 89.2685 82.4285 92.278 81.3744 93.3323Z" fill="#F85A9C"/>
<path d="M64.0006 73.11C69.8845 73.11 74.6713 68.3232 74.6713 62.4393C74.6713 56.5554 69.8845 51.7686 64.0006 51.7686C58.1167 51.7686 53.3298 56.5554 53.3298 62.4393C53.3298 68.3232 58.1167 73.11 64.0006 73.11ZM64.0006 57.6282C66.6536 57.6282 68.8118 59.7865 68.8118 62.4395C68.8118 65.0925 66.6536 67.2507 64.0006 67.2507C61.3476 67.2507 59.1893 65.0925 59.1893 62.4395C59.1893 59.7865 61.3476 57.6282 64.0006 57.6282Z" fill="#F85A9C"/>
<path d="M39.4222 43.308C41.0402 43.308 42.3519 41.9963 42.3519 40.3782C42.3519 38.7602 41.0402 37.4485 39.4222 37.4485C37.8041 37.4485 36.4924 38.7602 36.4924 40.3782C36.4924 41.9963 37.8041 43.308 39.4222 43.308Z" fill="#F85A9C"/>
<path d="M38.4554 54.3392C40.0734 54.3392 41.3851 53.0275 41.3851 51.4095C41.3851 49.7914 40.0734 48.4797 38.4554 48.4797C36.8373 48.4797 35.5256 49.7914 35.5256 51.4095C35.5256 53.0275 36.8373 54.3392 38.4554 54.3392Z" fill="#F85A9C"/>
</svg>
