<svg width="100" height="100" viewBox="0 0 100 100" fill="none" xmlns="http://www.w3.org/2000/svg">
<rect width="100" height="100" fill="#FAFAFA"/>
<path d="M99.27 48.2056C99.0456 47.9504 93.6715 41.8847 84.9686 35.7658C61.7944 19.4716 39.1352 18.8179 15.0311 35.7658C6.32837 41.8847 0.954346 47.9504 0.729932 48.2056C-0.243311 49.3121 -0.243311 50.9691 0.729932 52.0755C0.954346 52.3308 6.32837 58.3964 15.0313 64.5154C38.2055 80.8095 60.8647 81.4632 84.9688 64.5154C93.6717 58.3964 99.0456 52.3306 99.2702 52.0755C100.243 50.9691 100.243 49.3121 99.27 48.2056ZM71.2786 50.1406C71.2786 61.8109 61.6547 71.1675 50 71.1675C38.326 71.1675 28.7215 61.7914 28.7215 50.1406C28.7215 38.4703 38.3454 29.1136 50 29.1136C61.6739 29.1136 71.2786 38.4898 71.2786 50.1406ZM6.98149 50.1406C12.7651 44.3609 20.0018 38.8621 27.5723 35.0195C21.3501 44.0492 21.2295 56.057 27.5723 65.2617C19.9639 61.4 12.7305 55.8851 6.98149 50.1406ZM72.4274 65.2617C78.6497 56.232 78.7702 44.2242 72.4274 35.0195C80.0358 38.8812 87.2692 44.3961 93.0182 50.1406C87.2469 55.9074 80.0131 61.4115 72.4274 65.2617Z" fill="#F85A9C"/>
<path d="M52.9296 47.2109H54.6458L50 51.8568L46.2072 48.0641C45.0642 46.9207 43.2078 46.9199 42.064 48.0641L36.2548 53.8734C35.1107 55.0176 35.1107 56.8725 36.2548 58.0166C37.3988 59.1609 39.2539 59.1605 40.398 58.0166L44.1357 54.2789L47.9285 58.0715C49.0728 59.2156 50.9275 59.2156 52.0716 58.0715L58.789 51.3541V52.0938C58.789 53.7117 60.1007 55.0234 61.7187 55.0234C63.3367 55.0234 64.6484 53.7117 64.6484 52.0938V44.2812C64.6484 42.6633 63.3367 41.3516 61.7187 41.3516H52.9296C51.3117 41.3516 50 42.6633 50 44.2812C50 45.8992 51.3117 47.2109 52.9296 47.2109Z" fill="#F85A9C"/>
<path d="M49.9998 17.7188C51.6177 17.7188 52.9294 16.407 52.9294 14.7891V8.92969C52.9294 7.31172 51.6177 6 49.9998 6C48.3818 6 47.0701 7.31172 47.0701 8.92969V14.7891C47.0701 16.407 48.3818 17.7188 49.9998 17.7188Z" fill="#F85A9C"/>
<path d="M69.1404 22.8475C70.5355 23.6531 72.3299 23.1828 73.1424 21.7752L76.0721 16.701C76.8812 15.2998 76.4012 13.5078 74.9998 12.699C73.5986 11.8897 71.8066 12.3697 70.9978 13.7713L68.0682 18.8455C67.259 20.2467 67.7391 22.0385 69.1404 22.8475Z" fill="#F85A9C"/>
<path d="M49.9998 82.3672C48.3818 82.3672 47.0701 83.6789 47.0701 85.2969V91.3516C47.0701 92.9695 48.3818 94.2812 49.9998 94.2812C51.6177 94.2812 52.9294 92.9695 52.9294 91.3516V85.2969C52.9294 83.6789 51.6177 82.3672 49.9998 82.3672Z" fill="#F85A9C"/>
<path d="M73.0447 78.3368C72.2355 76.9354 70.4439 76.4552 69.0428 77.2645C67.6414 78.0735 67.1613 79.8651 67.9705 81.2665L70.9978 86.51C71.8094 87.9157 73.6027 88.3891 74.9998 87.5823C76.4012 86.7733 76.8812 84.9817 76.0721 83.5804L73.0447 78.3368Z" fill="#F85A9C"/>
<path d="M26.8572 21.7752C27.6687 23.1809 29.4621 23.6543 30.8592 22.8475C32.2605 22.0385 32.7406 20.2467 31.9314 18.8455L29.0018 13.7713C28.1926 12.3698 26.401 11.8899 24.9998 12.6991C23.5984 13.508 23.1184 15.2998 23.9275 16.701L26.8572 21.7752Z" fill="#F85A9C"/>
<path d="M30.9568 77.2646C29.5557 76.455 27.7637 76.9357 26.9549 78.3368L23.9275 83.5804C23.1184 84.9818 23.5984 86.7736 24.9998 87.5824C26.3955 88.3884 28.1895 87.9169 29.0018 86.5101L32.0291 81.2665C32.8383 79.8654 32.3582 78.0736 30.9568 77.2646Z" fill="#F85A9C"/>
</svg>
