<svg width="100" height="100" viewBox="0 0 100 100" fill="none" xmlns="http://www.w3.org/2000/svg">
<g clip-path="url(#clip0_1225_1491)">
<rect width="100" height="100" fill="white"/>
<path d="M92.7084 31.25H61.4584C57.4376 31.25 54.1667 34.5208 54.1667 38.5417V55.2083C54.1667 59.2292 57.4376 62.5 61.4584 62.5H92.7084C96.7292 62.5 100 59.2292 100 55.2083V38.5417C100 34.5208 96.7292 31.25 92.7084 31.25Z" fill="#CFD8DC"/>
<path d="M92.7084 68.75H61.4584C57.4376 68.75 54.1667 72.0208 54.1667 76.0417V92.7083C54.1667 96.7292 57.4376 100 61.4584 100H92.7084C96.7292 100 100 96.7292 100 92.7083V76.0417C100 72.0208 96.7292 68.75 92.7084 68.75Z" fill="#CFD8DC"/>
<path d="M92.7082 0H40.6249C36.6041 0 33.3333 3.27083 33.3333 7.29167V17.7083C33.3333 21.7292 36.6041 25 40.6249 25H92.7082C96.7291 25 99.9999 21.7292 99.9999 17.7083V7.29167C99.9999 3.27083 96.7291 0 92.7082 0Z" fill="#F85A9C"/>
<path d="M12.5 25C19.4036 25 25 19.4036 25 12.5C25 5.59644 19.4036 0 12.5 0C5.59644 0 0 5.59644 0 12.5C0 19.4036 5.59644 25 12.5 25Z" fill="#F85A9C"/>
<path d="M42.7083 37.5H3.125C1.4 37.5 0 36.1 0 34.375C0 32.65 1.4 31.25 3.125 31.25H42.7083C44.4333 31.25 45.8333 32.65 45.8333 34.375C45.8333 36.1 44.4333 37.5 42.7083 37.5Z" fill="black"/>
<path d="M42.7083 50H3.125C1.4 50 0 48.6 0 46.875C0 45.15 1.4 43.75 3.125 43.75H42.7083C44.4333 43.75 45.8333 45.15 45.8333 46.875C45.8333 48.6 44.4333 50 42.7083 50Z" fill="black"/>
<path d="M42.7083 62.5H3.125C1.4 62.5 0 61.1 0 59.375C0 57.65 1.4 56.25 3.125 56.25H42.7083C44.4333 56.25 45.8333 57.65 45.8333 59.375C45.8333 61.1 44.4333 62.5 42.7083 62.5Z" fill="black"/>
<path d="M42.7083 75H3.125C1.4 75 0 73.6 0 71.875C0 70.15 1.4 68.75 3.125 68.75H42.7083C44.4333 68.75 45.8333 70.15 45.8333 71.875C45.8333 73.6 44.4333 75 42.7083 75Z" fill="black"/>
<path d="M42.7083 87.5H3.125C1.4 87.5 0 86.1 0 84.375C0 82.65 1.4 81.25 3.125 81.25H42.7083C44.4333 81.25 45.8333 82.65 45.8333 84.375C45.8333 86.1 44.4333 87.5 42.7083 87.5Z" fill="black"/>
<path d="M92.7084 62.5H61.4584C57.4376 62.5 54.1667 59.2292 54.1667 55.2083V38.5417C54.1667 34.5208 57.4376 31.25 61.4584 31.25H92.7084C96.7292 31.25 100 34.5208 100 38.5417V55.2083C100 59.2292 96.7292 62.5 92.7084 62.5ZM61.4584 37.5C60.8834 37.5 60.4167 37.9667 60.4167 38.5417V55.2083C60.4167 55.7833 60.8834 56.25 61.4584 56.25H92.7084C93.2834 56.25 93.7501 55.7833 93.7501 55.2083V38.5417C93.7501 37.9667 93.2834 37.5 92.7084 37.5H61.4584Z" fill="black"/>
<path d="M92.7084 100H61.4584C57.4376 100 54.1667 96.7292 54.1667 92.7083V76.0417C54.1667 72.0208 57.4376 68.75 61.4584 68.75H92.7084C96.7292 68.75 100 72.0208 100 76.0417V92.7083C100 96.7292 96.7292 100 92.7084 100ZM61.4584 75C60.8834 75 60.4167 75.4667 60.4167 76.0417V92.7083C60.4167 93.2833 60.8834 93.75 61.4584 93.75H92.7084C93.2834 93.75 93.7501 93.2833 93.7501 92.7083V76.0417C93.7501 75.4667 93.2834 75 92.7084 75H61.4584Z" fill="black"/>
<path d="M42.7083 100H3.125C1.4 100 0 98.6 0 96.875C0 95.15 1.4 93.75 3.125 93.75H42.7083C44.4333 93.75 45.8333 95.15 45.8333 96.875C45.8333 98.6 44.4333 100 42.7083 100Z" fill="black"/>
<path d="M92.7082 25H40.6249C36.6041 25 33.3333 21.7292 33.3333 17.7083V7.29167C33.3333 3.27083 36.6041 0 40.6249 0H92.7082C96.7291 0 99.9999 3.27083 99.9999 7.29167V17.7083C99.9999 21.7292 96.7291 25 92.7082 25ZM40.6249 6.25C40.0499 6.25 39.5833 6.71667 39.5833 7.29167V17.7083C39.5833 18.2833 40.0499 18.75 40.6249 18.75H92.7082C93.2832 18.75 93.7499 18.2833 93.7499 17.7083V7.29167C93.7499 6.71667 93.2832 6.25 92.7082 6.25H40.6249Z" fill="black"/>
<path d="M12.5 25C5.60833 25 0 19.3917 0 12.5C0 5.60833 5.60833 0 12.5 0C19.3917 0 25 5.60833 25 12.5C25 19.3917 19.3917 25 12.5 25ZM12.5 6.25C9.05417 6.25 6.25 9.05417 6.25 12.5C6.25 15.9458 9.05417 18.75 12.5 18.75C15.9458 18.75 18.75 15.9458 18.75 12.5C18.75 9.05417 15.9458 6.25 12.5 6.25Z" fill="black"/>
</g>
<defs>
<clipPath id="clip0_1225_1491">
<rect width="100" height="100" fill="white"/>
</clipPath>
</defs>
</svg>
