<svg width="100" height="100" viewBox="0 0 100 100" fill="none" xmlns="http://www.w3.org/2000/svg">
<g clip-path="url(#clip0_1225_1522)">
<rect width="100" height="100" fill="white"/>
<path d="M12.5 4.10156H87.5C94.4038 4.10156 100 9.69772 100 16.6016V31.1852H0V16.6016C0 9.69772 5.59616 4.10156 12.5 4.10156Z" fill="#F85A9C"/>
<path d="M88.5414 95.768H11.4586C5.13763 95.768 0 90.6311 0 84.3102V15.5602C0 9.2392 5.13763 4.10156 11.4586 4.10156H88.5414C94.8624 4.10156 100 9.2392 100 15.5602V84.3102C100 90.6311 94.8624 95.768 88.5414 95.768ZM11.4586 10.3516C8.58765 10.3516 6.25 12.6892 6.25 15.5602V84.3102C6.25 87.1811 8.58765 89.518 11.4586 89.518H88.5414C91.4124 89.518 93.75 87.1811 93.75 84.3102V15.5602C93.75 12.6892 91.4124 10.3516 88.5414 10.3516H11.4586Z" fill="black"/>
<path d="M96.875 35.3516H3.125C1.39999 35.3516 0 33.9516 0 32.2266C0 30.5016 1.39999 29.1016 3.125 29.1016H96.875C98.6 29.1016 100 30.5016 100 32.2266C100 33.9516 98.6 35.3516 96.875 35.3516Z" fill="black"/>
<path d="M96.875 56.1851H3.125C1.39999 56.1851 0 54.7851 0 53.0601C0 51.3351 1.39999 49.9351 3.125 49.9351H96.875C98.6 49.9351 100 51.3351 100 53.0601C100 54.7851 98.6 56.1851 96.875 56.1851Z" fill="black"/>
<path d="M96.875 77.0181H3.125C1.39999 77.0181 0 75.6181 0 73.8931C0 72.1681 1.39999 70.7681 3.125 70.7681H96.875C98.6 70.7681 100 72.1681 100 73.8931C100 75.6181 98.6 77.0181 96.875 77.0181Z" fill="black"/>
<path d="M26.0415 95.768C24.3165 95.768 22.9165 94.368 22.9165 92.643V32.2266C22.9165 30.5016 24.3165 29.1016 26.0415 29.1016C27.7665 29.1016 29.1665 30.5016 29.1665 32.2266V92.643C29.1665 94.368 27.7665 95.768 26.0415 95.768Z" fill="black"/>
<path d="M50 95.768C48.275 95.768 46.875 94.368 46.875 92.643V32.2266C46.875 30.5016 48.275 29.1016 50 29.1016C51.725 29.1016 53.125 30.5016 53.125 32.2266V92.643C53.125 94.368 51.725 95.768 50 95.768Z" fill="black"/>
<path d="M73.9585 95.768C72.2335 95.768 70.8335 94.368 70.8335 92.643V32.2266C70.8335 30.5016 72.2335 29.1016 73.9585 29.1016C75.6835 29.1016 77.0835 30.5016 77.0835 32.2266V92.643C77.0835 94.368 75.6835 95.768 73.9585 95.768Z" fill="black"/>
</g>
<defs>
<clipPath id="clip0_1225_1522">
<rect width="100" height="100" fill="white"/>
</clipPath>
</defs>
</svg>
